<svg xmlns="http://www.w3.org/2000/svg" xmlns:xlink="http://www.w3.org/1999/xlink" version="1.1" x="0px" y="0px" viewBox="0 0 48 60" style="color: #eee;" xml:space="preserve">
    <g fill="#eee">
        <path d="M45.3,44.4V13.2c0-0.3-0.1-0.5-0.3-0.7L34.9,2.9c-0.2-0.2-0.4-0.3-0.7-0.3H3.7c-0.6,0-1,0.4-1,1v40.8c0,0.6,0.4,1,1,1h40.7   C44.9,45.4,45.3,45,45.3,44.4z M10.2,4.6h18.9v10.3H10.2V4.6z M38,43.4H10V24.5h28V43.4z M43.3,43.4H40V23.5c0-0.6-0.4-1-1-1H9   c-0.6,0-1,0.4-1,1v19.9H4.7V4.6h3.5v11.3c0,0.6,0.4,1,1,1h20.9c0.6,0,1-0.4,1-1V4.6h2.8l9.5,9V43.4z"/>
        <path d="M14.4,31.1h19.3c0.6,0,1-0.4,1-1s-0.4-1-1-1H14.4c-0.6,0-1,0.4-1,1S13.8,31.1,14.4,31.1z"/>
        <path d="M14.4,37.8h19.3c0.6,0,1-0.4,1-1s-0.4-1-1-1H14.4c-0.6,0-1,0.4-1,1S13.8,37.8,14.4,37.8z"/>
        <path d="M14.4,5.9c-0.6,0-1,0.4-1,1v4.6c0,0.6,0.4,1,1,1s1-0.4,1-1V6.9C15.4,6.3,14.9,5.9,14.4,5.9z"/>
    </g>
    <text x="0" y="63" fill="#eee" font-size="5px" font-weight="bold" font-family="'Helvetica Neue', Helvetica, Arial-Unicode, Arial, Sans-serif">Created by Vectors Market</text>
    <text x="0" y="68" fill="#eee" font-size="5px" font-weight="bold" font-family="'Helvetica Neue', Helvetica, Arial-Unicode, Arial, Sans-serif">from the Noun Project</text>
</svg>
